HIERARCHY
ROOT Hips
{
	OFFSET 55.583401 -5.989124 85.817101
	CHANNELS 6 Xposition Yposition Zposition Xrotation Yrotation Zrotation
	JOINT spine
	{
		OFFSET 0.000000 -0.367608 6.392601
		CHANNELS 3 Xrotation Yrotation Zrotation
		JOINT spine1
		{
			OFFSET 0.000000 -0.000001 9.176109
			CHANNELS 3 Xrotation Yrotation Zrotation
			JOINT spine2
			{
				OFFSET 0.000000 -0.000001 8.792381
				CHANNELS 3 Xrotation Yrotation Zrotation
				JOINT Neck
				{
					OFFSET 0.000000 -1.076243 22.573700
					CHANNELS 3 Xrotation Yrotation Zrotation
					JOINT Head
					{
						OFFSET 0.000000 -0.000001 6.820114
						CHANNELS 3 Xrotation Yrotation Zrotation
						End Site
						{
							OFFSET 0.000000 5.444268 16.508499
						}
					}
				}
				JOINT RightShoulder
				{
					OFFSET -3.702209 0.515507 9.495087
					CHANNELS 3 Xrotation Yrotation Zrotation
					JOINT RightArm
					{
						OFFSET 0.000000 -0.000002 12.453705
						CHANNELS 3 Xrotation Yrotation Zrotation
						JOINT RightArmRoll
						{
							OFFSET 0.000000 -0.000001 6.286865
							CHANNELS 3 Xrotation Yrotation Zrotation
							JOINT RightForeArm
							{
								OFFSET 0.000000 -0.000003 18.311401
								CHANNELS 3 Xrotation Yrotation Zrotation
								JOINT RightForeArmRoll
								{
									OFFSET 0.000000 -0.000001 7.054825
									CHANNELS 3 Xrotation Yrotation Zrotation
									JOINT RightHand
									{
										OFFSET 0.000000 -0.000002 14.157501
										CHANNELS 3 Xrotation Yrotation Zrotation
										End Site
										{
											OFFSET 0.000000 0.000000 0.100006
										}
									}
								}
							}
						}
					}
				}
				JOINT LeftShoulder
				{
					OFFSET 3.702209 0.515507 9.495087
					CHANNELS 3 Xrotation Yrotation Zrotation
					JOINT LeftArm
					{
						OFFSET 0.000000 -0.000002 12.453705
						CHANNELS 3 Xrotation Yrotation Zrotation
						JOINT LeftArmRoll
						{
							OFFSET 0.000000 -0.000001 6.286865
							CHANNELS 3 Xrotation Yrotation Zrotation
							JOINT LeftForeArm
							{
								OFFSET 0.000000 -0.000003 18.311401
								CHANNELS 3 Xrotation Yrotation Zrotation
								JOINT LeftForeArmRoll
								{
									OFFSET 0.000000 -0.000001 7.054825
									CHANNELS 3 Xrotation Yrotation Zrotation
									JOINT LeftHand
									{
										OFFSET 0.000000 -0.000002 14.157501
										CHANNELS 3 Xrotation Yrotation Zrotation
										End Site
										{
											OFFSET 0.000000 0.000000 0.100006
										}
									}
								}
							}
						}
					}
				}
			}
		}
	}
	JOINT RightUpLeg
	{
		OFFSET -5.666161 0.871610 -1.039032
		CHANNELS 3 Xrotation Yrotation Zrotation
		JOINT RightUpLegRoll
		{
			OFFSET 0.000000 -0.000003 16.600502
			CHANNELS 3 Xrotation Yrotation Zrotation
			JOINT RightLeg
			{
				OFFSET 0.000000 0.000003 -20.557198
				CHANNELS 3 Xrotation Yrotation Zrotation
				JOINT RightLegRoll
				{
					OFFSET 0.000000 -0.000003 20.624397
					CHANNELS 3 Xrotation Yrotation Zrotation
					JOINT RightFoot
					{
						OFFSET 0.000000 -0.000003 17.166397
						CHANNELS 3 Xrotation Yrotation Zrotation
						JOINT RightToeBase
						{
							OFFSET 0.000000 -0.000002 14.350204
							CHANNELS 3 Xrotation Yrotation Zrotation
							End Site
							{
								OFFSET 0.006081 0.801060 6.949707
							}
						}
					}
				}
			}
		}
	}
	JOINT LeftUpLeg
	{
		OFFSET 5.666161 0.871610 -1.039032
		CHANNELS 3 Xrotation Yrotation Zrotation
		JOINT LeftUpLegRoll
		{
			OFFSET 0.000000 -0.000003 16.600601
			CHANNELS 3 Xrotation Yrotation Zrotation
			JOINT LeftLeg
			{
				OFFSET 0.000000 -0.000003 20.557098
				CHANNELS 3 Xrotation Yrotation Zrotation
				JOINT LeftLegRoll
				{
					OFFSET 0.000000 -0.000003 20.815102
					CHANNELS 3 Xrotation Yrotation Zrotation
					JOINT LeftFoot
					{
						OFFSET 0.000000 -0.000003 16.975693
						CHANNELS 3 Xrotation Yrotation Zrotation
						JOINT LeftToeBase
						{
							OFFSET 0.000000 -0.000002 14.350204
							CHANNELS 3 Xrotation Yrotation Zrotation
							End Site
							{
								OFFSET -0.027260 0.801060 6.949707
							}
						}
					}
				}
			}
		}
	}
}
MOTION
Frames: 10
Frame Time: 0.041667
55.586193 -6.505155 85.825401 -5.056493 2.827611 -0.544089 -1.008692 -0.025497 -0.104343 1.985381 -0.042501 -0.208105 3.630451 -0.044995 -0.207584 6.426720 -4.820610 -0.367787 4.829058 3.125139 -0.026642 -10.221161 -62.051729 -12.227160 -45.078767 -115.969358 -37.470599 -0.000000 -0.000001 -0.000005 4.155497 -13.042204 0.018306 0.000007 0.000000 -3.000001 -5.000221 -7.998714 0.000179 -1.708354 52.542603 1.240414 -33.390329 118.086471 30.391760 0.000004 -0.000002 0.000005 3.857838 9.772916 0.227440 -0.000009 -0.000006 3.000001 -5.000232 7.998825 -0.000163 3.118304 -177.327967 -0.189818 -179.999991 0.000005 -1.185006 174.636203 -2.022121 -0.500819 -0.000000 -0.000003 0.049407 68.783031 6.946092 2.007532 25.456863 -7.355623 -0.000003 3.572687 171.675985 -2.446588 -0.000005 -0.000005 -1.123740 -8.153641 1.388248 0.672124 0.000000 -0.000001 -0.085489 70.685990 -6.465725 -3.155151 25.457870 7.355622 -0.001455 
55.570591 -6.501125 85.814606 -5.053243 2.829348 -0.546091 -1.009582 -0.025599 -0.104946 1.983620 -0.043193 -0.208530 3.628692 -0.045697 -0.208004 6.429223 -4.826419 -0.368211 4.825827 3.129957 -0.026812 -10.224173 -62.060082 -12.231142 -45.121141 -115.946409 -37.475885 0.000000 -0.000000 -0.000004 4.195576 -13.014925 0.018754 0.000007 0.000000 -3.000001 -5.000221 -7.998715 0.000179 -1.717886 52.564265 1.254701 -33.434643 118.063959 30.370078 0.000002 -0.000002 0.000005 3.849766 9.722553 0.231666 -0.000007 -0.000006 3.000000 -5.000231 7.998824 -0.000162 3.113900 -177.330931 -0.193672 -179.999991 0.000005 -1.185005 174.635055 -2.019124 -0.500578 -0.000000 -0.000003 0.049407 68.782402 6.946091 2.007571 25.456863 -7.355623 -0.000003 3.565486 171.673922 -2.446980 -0.000005 -0.000005 -1.123680 -8.161303 1.389033 0.672169 0.000000 -0.000002 -0.085489 70.689145 -6.464716 -3.158296 25.457869 7.355622 -0.001455 
55.594391 -6.502566 85.814293 -5.049961 2.831076 -0.547949 -1.010470 -0.025707 -0.105567 1.981831 -0.043873 -0.208950 3.626901 -0.046388 -0.208419 6.431873 -4.832745 -0.368782 4.822345 3.135265 -0.027114 -10.226947 -62.069064 -12.234890 -45.165148 -115.924074 -37.482080 -0.000001 -0.000002 -0.000004 4.231018 -12.987719 0.018681 0.000008 0.000000 -3.000001 -5.000223 -7.998714 0.000179 -1.726786 52.586340 1.268276 -33.481164 118.040941 30.350813 0.000002 -0.000002 0.000005 3.839165 9.672191 0.236108 -0.000009 -0.000006 3.000001 -5.000230 7.998823 -0.000163 3.109300 -177.333936 -0.197399 -179.999991 0.000006 -1.185005 174.633498 -2.015134 -0.500259 0.000000 -0.000003 0.049407 68.781555 6.946111 2.007527 25.456863 -7.355623 -0.000004 3.557866 171.671860 -2.447318 -0.000005 -0.000005 -1.123580 -8.169680 1.389827 0.672234 0.000000 -0.000001 -0.085488 70.692697 -6.463582 -3.161695 25.457869 7.355621 -0.001456 
55.588291 -6.502496 85.824600 -5.046642 2.832784 -0.549708 -1.011369 -0.025818 -0.106200 1.980031 -0.044546 -0.209365 3.625101 -0.047071 -0.208829 6.434626 -4.839429 -0.369454 4.818698 3.140912 -0.027506 -10.229572 -62.078551 -12.238483 -45.210255 -115.902149 -37.488900 -0.000000 -0.000000 -0.000005 4.263222 -12.960561 0.018233 0.000007 0.000000 -3.000001 -5.000221 -7.998713 0.000179 -1.735234 52.608825 1.281348 -33.527633 118.019030 30.331395 0.000002 -0.000003 0.000005 3.826781 9.621823 0.240692 -0.000009 -0.000006 3.000001 -5.000233 7.998824 -0.000163 3.104548 -177.336901 -0.201035 -179.999991 0.000005 -1.185005 174.631681 -2.012136 -0.500042 0.000000 -0.000002 0.049407 68.780613 6.946086 2.007584 25.456860 -7.355622 -0.000003 3.549932 171.669797 -2.447631 -0.000005 -0.000005 -1.123470 -8.178567 1.390627 0.672317 -0.000000 -0.000000 -0.085488 70.696440 -6.462423 -3.165280 25.457867 7.355623 -0.001456 
55.596992 -6.497503 85.818802 -5.043296 2.834492 -0.551409 -1.012282 -0.025930 -0.106839 1.978211 -0.045214 -0.209777 3.623291 -0.047750 -0.209237 6.437432 -4.846327 -0.370184 4.814947 3.146758 -0.027951 -10.232084 -62.088154 -12.241964 -45.255925 -115.880470 -37.496011 0.000000 -0.000001 -0.000004 4.293570 -12.933331 0.017554 0.000008 0.000000 -3.000000 -5.000224 -7.998713 0.000179 -1.743414 52.631406 1.294126 -33.574727 117.997296 30.312608 0.000003 -0.000002 0.000005 3.813385 9.571468 0.245346 -0.000005 -0.000006 3.000001 -5.000233 7.998823 -0.000163 3.099717 -177.338895 -0.204567 -179.999991 0.000005 -1.185005 174.629700 -2.009152 -0.499832 -0.000000 -0.000002 0.049407 68.779547 6.946095 2.007451 25.456863 -7.355624 -0.000003 3.541824 171.667707 -2.447919 -0.000004 -0.000005 -1.123350 -8.187731 1.391416 0.672407 0.000000 -0.000001 -0.085489 70.700292 -6.461233 -3.168853 25.457869 7.355621 -0.001456 
55.603794 -6.498855 85.807404 -5.039960 2.836200 -0.553095 -1.013190 -0.026043 -0.107481 1.976401 -0.045880 -0.210189 3.621471 -0.048428 -0.209644 6.440248 -4.853277 -0.370928 4.811169 3.152645 -0.028405 -10.234603 -62.097949 -12.245451 -45.301855 -115.858846 -37.503312 -0.000001 -0.000002 -0.000005 4.323442 -12.906210 0.016804 0.000007 0.000000 -3.000001 -5.000221 -7.998714 0.000179 -1.751557 52.654085 1.306858 -33.621900 117.975563 30.293924 0.000000 -0.000002 0.000005 3.799737 9.521102 0.250000 -0.000009 -0.000006 3.000001 -5.000233 7.998825 -0.000162 3.094863 -177.341873 -0.208139 -179.999991 0.000006 -1.185005 174.627679 -2.006152 -0.499622 -0.000000 -0.000002 0.049407 68.778407 6.946132 2.007431 25.456863 -7.355624 -0.000003 3.533665 171.665658 -2.448198 -0.000005 -0.000004 -1.123220 -8.196975 1.392215 0.672501 0.000000 -0.000001 -0.085488 70.704219 -6.459978 -3.172609 25.457867 7.355623 -0.001456 
55.594994 -6.501513 85.809601 -5.036624 2.837898 -0.554812 -1.014091 -0.026154 -0.108118 1.974591 -0.046550 -0.210602 3.619662 -0.049108 -0.210053 6.443044 -4.860118 -0.371643 4.807440 3.158442 -0.028833 -10.237164 -62.107552 -12.248983 -45.347709 -115.837181 -37.510672 0.000001 -0.000002 -0.000004 4.354246 -12.879071 0.016120 0.000007 0.000000 -3.000000 -5.000222 -7.998715 0.000180 -1.759837 52.676669 1.319744 -33.668950 117.953815 30.275094 0.000003 -0.000002 0.000005 3.786615 9.470730 0.254583 -0.000008 -0.000006 3.000001 -5.000232 7.998824 -0.000162 3.090051 -177.344865 -0.211736 -179.999991 0.000005 -1.185005 174.625753 -2.003167 -0.498412 -0.000000 -0.000002 0.049407 68.777341 6.946102 2.007492 25.456860 -7.355622 -0.000003 3.525599 171.663582 -2.448491 -0.000005 -0.000005 -1.123100 -8.206073 1.393015 0.672590 -0.000000 -0.000001 -0.085489 70.708051 -6.458789 -3.176286 25.457872 7.355623 -0.001456 
55.604591 -6.499585 85.820503 -5.033307 2.839616 -0.556599 -1.014989 -0.026264 -0.108747 1.972792 -0.047224 -0.211018 3.617862 -0.049793 -0.210465 6.445766 -4.866701 -0.372284 4.803842 3.163989 -0.029197 -10.239866 -62.116937 -12.252652 -45.392604 -115.815133 -37.517444 -0.000001 -0.000001 -0.000004 4.387348 -12.851891 0.015642 0.000008 0.000000 -3.000001 -5.000223 -7.998714 0.000179 -1.768448 52.699045 1.333004 -33.715354 117.931877 30.255590 0.000001 -0.000002 0.000005 3.774765 9.420359 0.259032 -0.000009 -0.000006 3.000000 -5.000235 7.998823 -0.000162 3.085339 -177.347856 -0.215397 -179.999991 0.000005 -1.185005 174.623990 -2.000170 -0.498192 -0.000000 -0.000002 0.049407 68.776399 6.946118 2.007455 25.456861 -7.355624 -0.000003 3.517754 171.661519 -2.448805 -0.000005 -0.000005 -1.122990 -8.214807 1.393806 0.672668 0.000000 -0.000001 -0.085489 70.711712 -6.457657 -3.179779 25.457860 7.355621 -0.001456 
55.608791 -6.507514 85.816910 -5.030043 2.841343 -0.558503 -1.015879 -0.026371 -0.109363 1.971011 -0.047907 -0.211439 3.616082 -0.050488 -0.210882 6.448376 -4.872876 -0.372806 4.800430 3.169157 -0.029455 -10.242716 -62.125707 -12.256463 -45.436573 -115.792702 -37.523823 0.000001 -0.000000 -0.000005 4.424140 -12.824748 0.015518 0.000009 0.000000 -3.000001 -5.000221 -7.998714 0.000179 -1.777580 52.721011 1.346851 -33.761762 117.908818 30.236223 0.000003 -0.000001 0.000005 3.764964 9.369996 0.263285 -0.000009 -0.000006 3.000001 -5.000234 7.998824 -0.000162 3.080798 -177.350821 -0.219158 -179.999991 0.000006 -1.185005 174.622570 -1.997173 -0.497960 -0.000000 -0.000003 0.049407 68.775647 6.946110 2.007499 25.456861 -7.355622 -0.000003 3.510254 171.659470 -2.449157 -0.000005 -0.000005 -1.122910 -8.222973 1.394599 0.672730 0.000000 -0.000001 -0.085489 70.715073 -6.456588 -3.183102 25.457869 7.355622 -0.001455 
55.607491 -6.506266 85.819504 -5.026813 2.843091 -0.560563 -1.016762 -0.026471 -0.109959 1.969261 -0.048603 -0.211868 3.614331 -0.051193 -0.211304 6.450817 -4.878478 -0.373168 4.797294 3.173776 -0.029569 -10.245841 -62.133848 -12.260575 -45.479091 -115.769685 -37.529492 0.000002 -0.000001 -0.000005 4.466009 -12.797515 0.015872 0.000008 -0.000000 -3.000001 -5.000221 -7.998715 0.000180 -1.787456 52.742369 1.361526 -33.805731 117.886210 30.214223 0.000002 -0.000002 0.000005 3.757955 9.319623 0.267285 -0.000008 -0.000006 2.999999 -5.000232 7.998824 -0.000163 3.076474 -177.353812 -0.223060 -179.999991 0.000005 -1.185005 174.621559 -1.993198 -0.497621 -0.000000 -0.000003 0.049407 68.775121 6.946113 2.007432 25.456861 -7.355623 -0.000003 3.503237 171.657393 -2.449552 -0.000004 -0.000005 -1.122860 -8.230337 1.395384 0.672766 0.000001 -0.000001 -0.085489 70.718221 -6.455578 -3.186148 25.457865 7.355622 -0.001456 
